<svg xmlns="http://www.w3.org/2000/svg" width="11.748" height="13.898" viewBox="0 0 11.748 13.898">
  <g id="Group_1686565999" data-name="Group 1686565999" transform="translate(0.375 0.375)">
    <path id="Path_352560" data-name="Path 352560" d="M62.863,72.453l.305.139c-.343-.229-1.021-.352-1.416-.569-.963-.53-1.166-2.183-1.45-2.308-.123-.026-.139.1-.18.173-.439.827-.371,1.63-1.328,2.145-.2.107-1.488.543-1.5.623s-.023.211.048.256c.2.162,1.082.334,1.4.5,1.036.538.921,1.279,1.387,2.157.121.227.2.285.319.031a4.815,4.815,0,0,1,.995-1.915,6.139,6.139,0,0,1,1.677-.771C63.716,72.647,62.863,72.453,62.863,72.453Z" transform="translate(-52.331 -62.62)" fill="none" stroke="#000" stroke-width="0.75"/>
    <path id="Path_352561" data-name="Path 352561" d="M3.017,11.119A2.017,2.017,0,0,1,1,9.1V3.016A2.017,2.017,0,0,1,3.016,1H9.1A2.017,2.017,0,0,1,11.12,3.017V7.5" transform="translate(-1 -1)" fill="none" stroke="#000" stroke-width="0.75"/>
    <path id="Path_352562" data-name="Path 352562" d="M26.755,33.039l-.184.885H25.494l1.037-4.262h1.492L29.1,33.924H27.964l-.2-.885Zm.846-.875c-.139-.632-.263-1.282-.337-1.7h-.024c-.067.443-.194,1.086-.328,1.7Z" transform="translate(-23.268 -27.058)"/>
    <rect id="Rectangle_298900" data-name="Rectangle 298900" width="1.089" height="4.262" transform="translate(6.224 2.604)"/>
  </g>
</svg>
