<svg xmlns="http://www.w3.org/2000/svg" width="20.827" height="15.781" viewBox="0 0 20.827 15.781">
  <path id="_1303871_arrow_arrows_back_circle_direction_icon" data-name="1303871_arrow_arrows_back_circle_direction_icon" d="M27.414,16a.759.759,0,0,1-.8.75H9.36l5.893,5.744a.815.815,0,0,1,.017,1.144.8.8,0,0,1-.574.249.793.793,0,0,1-.557-.223L6.83,16.573a.8.8,0,0,1,0-1.147l7.308-7.093a.8.8,0,0,1,1.131.017.831.831,0,0,1-.017,1.156L9.36,15.25H26.614A.759.759,0,0,1,27.414,16Z" transform="translate(-6.587 -8.107)"/>
</svg>
