<svg id="Group_1686565997" data-name="Group 1686565997" xmlns="http://www.w3.org/2000/svg" width="32" height="32" viewBox="0 0 32 32">
  <rect id="Rectangle_298897" data-name="Rectangle 298897" width="32" height="32" rx="16" fill="#f8f7fc"/>
  <path id="Path_352543" data-name="Path 352543" d="M3.658,13.242A2.06,2.06,0,0,0,7.141,11.97c.194-2.244-.153-4.76,0-7.034a.565.565,0,0,0-1.121.078l-.038,7.06A.92.92,0,0,1,4.19,11.83c.163-2.77-.2-5.766,0-8.51a2.435,2.435,0,0,1,4.834-.13c-.17,3.123.252,6.533.01,9.623-.373,4.77-7.383,4.787-7.848.13-.25-2.508.168-5.387-.007-7.934a.563.563,0,0,0-1.125,0c.135,2.551-.174,5.275,0,7.8.429,6.283,9.676,6.276,10.1,0,.221-3.245-.1-6.843-.092-10.1-.857-3.894-6.663-3.444-7,.4-.244,2.825.19,6,0,8.86a2.085,2.085,0,0,0,.588,1.273" transform="translate(11 7)"/>
</svg>
