<svg xmlns="http://www.w3.org/2000/svg" id="Group_1686557806" data-name="Group 1686557806" width="20" height="20" viewBox="0 0 20 20">
  <rect id="Rectangle_156977" data-name="Rectangle 156977" width="20" height="20" fill="#fff" opacity="0"/>
  <g id="Icon_akar-people-group" data-name="Icon akar-people-group" transform="translate(3.969 4.332)">
    <path id="Path_426412" data-name="Path 426412" d="M16.256,22.394l-.363-2.9A1.7,1.7,0,0,0,14.205,18H12.956a1.7,1.7,0,0,0-1.687,1.49l-.363,2.9a1.134,1.134,0,0,0,1.126,1.274h3.1a1.134,1.134,0,0,0,1.125-1.274Z" transform="translate(-7.55 -12.332)" fill="none" stroke="#013fe6" stroke-linecap="round" stroke-linejoin="round" stroke-width="0.75"/>
    <path id="Path_426413" data-name="Path 426413" d="M16.9,4.7A1.7,1.7,0,1,1,15.2,3,1.7,1.7,0,0,1,16.9,4.7Z" transform="translate(-9.17 -3)" fill="none" stroke="#013fe6" stroke-width="0.75"/>
    <path id="Path_426414" data-name="Path 426414" d="M5.267,11.634A1.134,1.134,0,1,1,4.134,10.5,1.134,1.134,0,0,1,5.267,11.634Z" transform="translate(-2.638 -7.666)" fill="none" stroke="#013fe6" stroke-width="0.75"/>
    <path id="Path_426415" data-name="Path 426415" d="M29.267,11.634A1.134,1.134,0,1,1,28.134,10.5,1.134,1.134,0,0,1,29.267,11.634Z" transform="translate(-17.568 -7.666)" fill="none" stroke="#013fe6" stroke-width="0.75"/>
    <path id="Path_426416" data-name="Path 426416" d="M3.537,21H3.364a1.134,1.134,0,0,0-1.118.947l-.189,1.134A1.134,1.134,0,0,0,3.175,24.4H5.238M12.606,21h.173a1.134,1.134,0,0,1,1.118.947l.189,1.134a1.134,1.134,0,0,1-1.118,1.32H10.906" transform="translate(-2.041 -14.198)" fill="none" stroke="#013fe6" stroke-linecap="round" stroke-linejoin="round" stroke-width="0.75"/>
  </g>
</svg>