<svg xmlns="http://www.w3.org/2000/svg" width="20.036" height="19.33" viewBox="0 0 20.036 19.33">
  <g id="Group_1686566011" data-name="Group 1686566011" transform="translate(0.536 0.5)">
    <path id="Path_426445" data-name="Path 426445" d="M11.185,36.167a7.46,7.46,0,0,1-5.924.211c-1.007-.392-4.277,0-4.277,0s.8-2.722.476-3.3a7.476,7.476,0,0,1,2.127-9.712,9.122,9.122,0,0,0,7.6,12.8Z" transform="translate(-0.5 -18.587)" fill="none" stroke="#000" stroke-linecap="round" stroke-linejoin="round" stroke-width="1"/>
    <path id="Path_426446" data-name="Path 426446" d="M39.4,8.433a8.112,8.112,0,0,1-2.736,6.135c-.515.449-.758,3.45-.758,3.45S33,16.367,31.92,16.367a7.715,7.715,0,0,1-7.476-7.933A7.715,7.715,0,0,1,31.92.5,7.715,7.715,0,0,1,39.4,8.433Z" transform="translate(-20.397 -0.5)" fill="none" stroke="#000" stroke-linecap="round" stroke-linejoin="round" stroke-width="1"/>
    <path id="Path_426447" data-name="Path 426447" d="M39.4,8.433a8.112,8.112,0,0,1-2.736,6.135c-.515.449-.758,3.45-.758,3.45S33,16.367,31.92,16.367a7.715,7.715,0,0,1-7.476-7.933A7.715,7.715,0,0,1,31.92.5,7.715,7.715,0,0,1,39.4,8.433Z" transform="translate(-20.397 -0.5)" fill="none" stroke="#000" stroke-linecap="round" stroke-linejoin="round" stroke-width="1"/>
    <line id="Line_9209" data-name="Line 9209" x2="5.614" transform="translate(8.609 4.881)" fill="none" stroke="#000" stroke-linecap="round" stroke-width="1"/>
    <line id="Line_9210" data-name="Line 9210" x2="5.614" transform="translate(8.609 7.845)" fill="none" stroke="#000" stroke-linecap="round" stroke-width="1"/>
    <line id="Line_9211" data-name="Line 9211" x2="5.614" transform="translate(8.609 10.809)" fill="none" stroke="#000" stroke-linecap="round" stroke-width="1"/>
  </g>
</svg>
