<svg xmlns="http://www.w3.org/2000/svg" width="11.917" height="13.157" viewBox="0 0 11.917 13.157">
  <g id="home" transform="translate(0.375 0.375)">
    <path id="Path_352535" data-name="Path 352535" d="M8.583,1.625a.374.374,0,0,1,.23.079L14.4,6.047a.375.375,0,0,1,.145.3v6.824a1.618,1.618,0,0,1-1.616,1.616H4.241a1.618,1.618,0,0,1-1.616-1.616V6.343a.375.375,0,0,1,.145-.3L8.353,1.7A.374.374,0,0,1,8.583,1.625Zm5.208,4.9L8.583,2.475,3.375,6.526v6.641a.867.867,0,0,0,.866.866h8.685a.867.867,0,0,0,.866-.866Z" transform="translate(-3 -2)"/>
    <path id="Path_352536" data-name="Path 352536" d="M12.722,18.579a.375.375,0,0,1-.375-.375V12.375H9.375V18.2a.375.375,0,0,1-.75,0V12A.375.375,0,0,1,9,11.625h3.722A.375.375,0,0,1,13.1,12v6.2A.375.375,0,0,1,12.722,18.579Z" transform="translate(-5.278 -5.796)"/>
  </g>
</svg>
