<svg id="Group_161762" data-name="Group 161762" xmlns="http://www.w3.org/2000/svg" width="20" height="20" viewBox="0 0 20 20">
  <rect id="Rectangle_156977" data-name="Rectangle 156977" width="20" height="20" fill="#fff" opacity="0"/>
  <g id="Icon_feather-users" data-name="Icon feather-users" transform="translate(4.5 5.364)">
    <path id="Path_426417" data-name="Path 426417" d="M9.7,25.576V24.551A2.051,2.051,0,0,0,7.653,22.5h-4.1A2.051,2.051,0,0,0,1.5,24.551v1.025" transform="translate(-1.5 -15.758)" fill="none" stroke="#000" stroke-linecap="round" stroke-linejoin="round" stroke-width="0.75"/>
    <path id="Path_426418" data-name="Path 426418" d="M11.6,6.551A2.051,2.051,0,1,1,9.551,4.5,2.051,2.051,0,0,1,11.6,6.551Z" transform="translate(-5.243 -4.5)" fill="none" stroke="#000" stroke-linecap="round" stroke-linejoin="round" stroke-width="0.75"/>
    <path id="Path_426419" data-name="Path 426419" d="M27.589,14.447V13.355a2.163,2.163,0,0,0-1.538-2.112M24,4.7A2.163,2.163,0,0,1,25.542,6.81,2.163,2.163,0,0,1,24,8.924" transform="translate(-15.589 -4.628)" fill="none" stroke="#000" stroke-linecap="round" stroke-linejoin="round" stroke-width="0.75"/>
  </g>
</svg>
