<svg id="Group_1686557806" data-name="Group 1686557806" xmlns="http://www.w3.org/2000/svg" width="19.726" height="19.726" viewBox="0 0 19.726 19.726">
  <rect id="Rectangle_151149" data-name="Rectangle 151149" width="19.726" height="19.726" fill="none"/>
  <g id="Group_162385" data-name="Group 162385" transform="translate(4.863 3.457)">
    <g id="Group_162388" data-name="Group 162388" transform="translate(0)">
      <path id="Path_334627" data-name="Path 334627" d="M10.042,10.883H.708A.325.325,0,0,1,.42,10.4L1.839,8V5.384A3.441,3.441,0,0,1,4.323,2.1V1.346a.989.989,0,0,1,1.977,0v.741a3.45,3.45,0,0,1,1.53.874,3.36,3.36,0,0,1,1.03,2.423V7.866l1.47,2.531A.325.325,0,0,1,10.042,10.883Z" transform="translate(-0.375 -0.375)" fill="none" stroke="#000" stroke-width="0.75"/>
      <path id="Path_334628" data-name="Path 334628" d="M8.3,15.719a1.651,1.651,0,0,1-3.3,0" transform="translate(-1.646 -4.242)" fill="none" stroke="#000" stroke-width="0.75"/>
    </g>
  </g>
</svg>
