<svg xmlns="http://www.w3.org/2000/svg" width="24" height="24" viewBox="0 0 24 24">
  <g id="Group_1686558012" data-name="Group 1686558012" transform="translate(-99 -449)">
    <circle id="Ellipse_17105" data-name="Ellipse 17105" cx="12" cy="12" r="12" transform="translate(99 449)" fill="#023fe6"/>
    <g id="Group_1686558011" data-name="Group 1686558011" transform="translate(102.913 456.225)">
      <path id="Path_125" data-name="Path 125" d="M312.231,289.305v3.63h-1.576v-3.3a1.237,1.237,0,0,0-1.206-1.4c-.9,0-1.481.6-1.481,2.053v2.639h-1.576v-5.958h1.576v.537a2.539,2.539,0,0,1,1.874-.716A2.327,2.327,0,0,1,312.231,289.305Z" transform="translate(-306.393 -284.338)" fill="#fff"/>
      <path id="Path_127" data-name="Path 127" d="M347.124,291.036c.084.609.609.812,1.23.812.585,0,.931-.263.931-.6,0-.215-.143-.43-.657-.537l-1.218-.251c-1.075-.227-1.683-.836-1.683-1.7,0-1.146.931-1.97,2.436-1.97a2.4,2.4,0,0,1,2.591,1.767l-1.5.3a1.019,1.019,0,0,0-1.134-.824c-.633,0-.812.31-.812.585,0,.191.072.394.537.5l1.421.311a1.724,1.724,0,0,1,1.564,1.683c0,1.313-1.062,1.994-2.615,1.994-1.313,0-2.519-.513-2.674-1.755Z" transform="translate(-338.71 -284.338)" fill="#fff"/>
      <path id="Path_128" data-name="Path 128" d="M382.612,281.567v-8.6h1.576v8.6Z" transform="translate(-369.191 -272.971)" fill="#fff"/>
    </g>
  </g>
</svg>
