<svg xmlns="http://www.w3.org/2000/svg" width="18.313" height="19.848" viewBox="0 0 18.313 19.848">
  <g id="Group_1686565999" data-name="Group 1686565999" transform="translate(0.5 0.5)">
    <path id="Path_352560" data-name="Path 352560" d="M66.9,74.432l.526.24c-.591-.394-1.758-.606-2.438-.98-1.659-.913-2.008-3.76-2.5-3.974-.211-.045-.24.167-.31.3-.756,1.424-.638,2.807-2.287,3.695-.341.184-2.563.936-2.591,1.074-.047.136-.04.364.082.44.343.279,1.863.575,2.405.856,1.783.927,1.586,2.2,2.388,3.715.208.391.349.49.549.053.524-1.146.714-2.457,1.713-3.3a10.573,10.573,0,0,1,2.888-1.327C68.368,74.767,66.9,74.432,66.9,74.432Z" transform="translate(-50.388 -61.291)" fill="none" stroke="#000" stroke-width="1"/>
    <path id="Path_352561" data-name="Path 352561" d="M3.72,14.649A2.72,2.72,0,0,1,1,11.929V3.719A2.72,2.72,0,0,1,3.719,1h8.21a2.72,2.72,0,0,1,2.72,2.72V9.767" transform="translate(-1 -1)" fill="none" stroke="#000" stroke-width="1"/>
    <path id="Path_352562" data-name="Path 352562" d="M27.194,34.217l-.248,1.194H25.494l1.4-5.749h2.013l1.448,5.749H28.826l-.268-1.194Zm1.14-1.18c-.188-.852-.355-1.729-.454-2.294h-.032c-.09.6-.262,1.465-.442,2.294Z" transform="translate(-22.491 -26.149)"/>
    <rect id="Rectangle_298900" data-name="Rectangle 298900" width="1.469" height="5.749" transform="translate(8.395 3.513)"/>
  </g>
</svg>
